<?xml version="1.0" encoding="iso-8859-1"?>
<!-- Generator: Adobe Illustrator 19.0.0, SVG Export Plug-In . SVG Version: 6.00 Build 0)  -->
<svg version="1.1" id="Layer_1" xmlns="http://www.w3.org/2000/svg" xmlns:xlink="http://www.w3.org/1999/xlink" x="0px" y="0px"
	 viewBox="0 0 512 512" style="enable-background:new 0 0 512 512;" xml:space="preserve">
<path style="fill:#F8C660;" d="M242.197,353.434l-111.459,58.598c-12.947,6.806-28.08-4.188-25.607-18.604l21.287-124.112
	l-90.173-87.897c-10.475-10.211-4.695-28,9.781-30.104l124.616-18.108l55.73-112.921c6.474-13.118,25.179-13.118,31.652,0
	l55.73,112.921l124.616,18.108c14.476,2.103,20.255,19.893,9.781,30.104l-90.173,87.897l21.287,124.112
	c2.472,14.418-12.66,25.412-25.607,18.604L242.197,353.434z"/>
<polygon style="fill:#ECF0F1;" points="171.327,254.723 100.455,185.642 198.397,171.409 242.198,82.66 285.998,171.409 
	383.94,185.642 313.068,254.723 329.799,352.269 242.198,306.214 154.596,352.269 "/>
<circle style="fill:#3EBD91;" cx="352.779" cy="373.217" r="128.334"/>
<g>
	<path style="fill:#231F20;" d="M400.173,242.777l55.271-53.876c7.714-7.52,10.439-18.556,7.109-28.803
		c-3.329-10.246-12.019-17.573-22.682-19.123l-119.18-17.318L267.394,15.663C262.626,6.002,252.971,0,242.198,0
		c-10.775,0-20.429,6.002-25.197,15.662l-53.298,107.994l-119.18,17.318c-10.661,1.55-19.353,8.877-22.682,19.124
		c-3.33,10.246-0.605,21.282,7.109,28.802l86.239,84.062L94.832,391.661c-1.82,10.618,2.462,21.149,11.178,27.481
		c4.926,3.578,10.688,5.396,16.488,5.396c4.465,0,8.954-1.077,13.101-3.258l78.56-41.301C217.697,453.376,278.517,512,352.775,512
		c76.523,0,138.78-62.257,138.78-138.781C491.555,313.332,453.427,262.188,400.173,242.777z M125.876,402.783
		c-3.577,1.88-6.494,0.241-7.582-0.549c-1.089-0.791-3.547-3.061-2.864-7.042l21.287-124.112c0.581-3.39-0.543-6.848-3.005-9.248
		l-90.173-87.897c-2.893-2.819-2.238-6.1-1.821-7.38c0.415-1.28,1.814-4.32,5.812-4.901l124.616-18.108
		c3.404-0.494,6.346-2.632,7.868-5.716L235.742,24.91c1.787-3.622,5.111-4.012,6.456-4.012c1.345,0,4.669,0.391,6.455,4.013
		l55.73,112.921c1.522,3.083,4.464,5.221,7.867,5.716l124.617,18.108c3.998,0.581,5.396,3.621,5.813,4.9
		c0.415,1.28,1.07,4.561-1.822,7.38l-64.186,62.566c-7.766-1.353-15.749-2.066-23.896-2.066c-1.333,0-2.662,0.023-3.987,0.061
		l42.446-41.374c2.848-2.776,3.872-6.929,2.644-10.711c-1.23-3.783-4.499-6.539-8.435-7.112l-92.505-13.442l-41.369-83.824
		c-1.761-3.566-5.393-5.824-9.371-5.824s-7.609,2.258-9.371,5.824l-41.37,83.824l-92.506,13.443
		c-3.936,0.572-7.206,3.329-8.434,7.112c-1.229,3.784-0.204,7.935,2.644,10.711l66.938,65.247l-15.802,92.132
		c-0.673,3.919,0.939,7.882,4.158,10.22c1.82,1.323,3.977,1.996,6.143,1.996c1.663,0,3.332-0.396,4.861-1.2l61.74-32.459
		c-2.894,8.601-4.966,17.575-6.124,26.83L125.876,402.783z M236.637,297.332l-68.164,35.836l13.152-76.679
		c0.581-3.39-0.543-6.848-3.005-9.249l-55.711-54.303l76.991-11.188c3.403-0.494,6.345-2.632,7.867-5.716l34.43-69.764
		l34.429,69.765c1.522,3.083,4.464,5.221,7.868,5.716l76.989,11.188l-48.569,47.342
		C281.283,249.782,254.369,270.286,236.637,297.332z M352.775,491.102c-65.001,0-117.883-52.882-117.883-117.883
		s52.882-117.883,117.883-117.883s117.882,52.882,117.882,117.883S417.776,491.102,352.775,491.102z"/>
	<path style="fill:#231F20;" d="M436.755,326.719c-4.079-4.079-10.696-4.08-14.778,0l-82.648,82.648l-41.907-41.908
		c-4.081-4.079-10.696-4.079-14.778,0c-4.08,4.08-4.08,10.697,0,14.778l49.296,49.296c2.041,2.041,4.715,3.061,7.388,3.061
		s5.348-1.02,7.388-3.061l90.037-90.036C440.835,337.415,440.835,330.799,436.755,326.719z"/>
</g>
<g>
</g>
<g>
</g>
<g>
</g>
<g>
</g>
<g>
</g>
<g>
</g>
<g>
</g>
<g>
</g>
<g>
</g>
<g>
</g>
<g>
</g>
<g>
</g>
<g>
</g>
<g>
</g>
<g>
</g>
</svg>
