<svg enable-background="new 0 0 87.318 83.411" height="83.411" viewBox="0 0 87.318 83.411" width="87.318" xmlns="http://www.w3.org/2000/svg"><g fill="#889597"><circle cx="20.178" cy="25.659" r="9.253"/><circle cx="43.659" cy="41.706" r="9.252"/><circle cx="43.659" cy="9.324" r="9.252"/><circle cx="67.141" cy="25.659" r="9.252"/><circle cx="43.659" cy="74.086" r="9.252"/><circle cx="20.178" cy="57.751" r="9.253"/><circle cx="67.141" cy="57.751" r="9.252"/><path d="m53.666 19.461h3.469v28.442h-3.469z" transform="matrix(.5642 .8256 -.8256 .5642 51.9487 -31.0618)"/><path d="m30.826 3.27h3.47v28.442h-3.47z" transform="matrix(.5643 .8256 -.8256 .5643 28.6277 -19.2611)"/><path d="m53.666 51.698h3.469v28.441h-3.469z" transform="matrix(.5642 .8256 -.8256 .5642 78.5641 -17.0143)"/><path d="m29.958 35.436h3.468v28.44h-3.468z" transform="matrix(.5639 .8259 -.8259 .5639 54.8315 -4.5165)"/><path d="m31.476 20.689h3.47v28.441h-3.47z" transform="matrix(.5527 -.8334 .8334 .5527 -14.2373 43.2951)"/><path d="m53.665 3.269h3.469v28.443h-3.469z" transform="matrix(.5523 -.8336 .8336 .5523 10.2223 54.0145)"/><path d="m31.476 52.782h3.47v28.441h-3.47z" transform="matrix(.5525 -.8335 .8335 .5525 -40.9857 57.6635)"/><path d="m53.666 35.361h3.469v28.443h-3.469z" transform="matrix(.5524 -.8336 .8336 .5524 -16.5326 68.3766)"/><path d="m65.407 26.801h3.471v28.443h-3.471z" transform="matrix(1 -.0034 .0034 1 -.1381 .2269)"/><path d="m18.667 26.801h3.469v28.443h-3.469z" transform="matrix(1 -.0034 .0034 1 -.1385 .0692)"/><path d="m42.437 44.891h3.471v28.442h-3.471z" transform="matrix(1 -.0028 .0028 1 -.1661 .1245)"/></g></svg>