<svg enable-background="new 0 0 87.318 83.411" height="83.411" viewBox="0 0 87.318 83.411" width="87.318" xmlns="http://www.w3.org/2000/svg"><g fill="#889597" transform="matrix(5.34921 0 0 5.34921 -1638.26701 -1667.12454)"><path d="m314.768 326.119v-4.224l7.551-4.224v4.224z"/><path d="m314.188 326.165v-4.224l-7.551-4.224v4.224z"/><path d="m312.483 316.089c0-.654-.947-1.184-2.116-1.184s-2.116.53-2.116 1.184.947 1.183 2.116 1.183c1.168.001 2.116-.529 2.116-1.183z"/><path d="m316.428 318.151c0-.654-.947-1.184-2.116-1.184-1.168 0-2.116.53-2.116 1.184s.947 1.183 2.116 1.183c1.169.001 2.116-.529 2.116-1.183z"/><path d="m320.493 316.089c0-.654-.947-1.184-2.116-1.184-1.168 0-2.116.53-2.116 1.184s.948 1.183 2.116 1.183c1.169.001 2.116-.529 2.116-1.183z"/><path d="m314.52 312.99-1.621.906c.375-.188.87-.303 1.413-.303 1.169 0 2.116.53 2.116 1.184s-.947 1.184-2.116 1.184c-1.168 0-2.116-.53-2.116-1.184 0-.304.205-.581.541-.79l-3.468 1.939c.32-.108.695-.171 1.097-.171 1.168 0 2.116.53 2.116 1.184 0 .653-.947 1.184-2.116 1.184s-2.116-.53-2.116-1.184c0-.225.112-.435.306-.614l-1.534.858 7.496 4.193 7.496-4.193zm-.208 7.195c-1.168 0-2.116-.53-2.116-1.183 0-.654.947-1.184 2.116-1.184s2.116.53 2.116 1.184c0 .653-.947 1.183-2.116 1.183zm4.066-2.062c-1.168 0-2.116-.53-2.116-1.184s.948-1.184 2.116-1.184c1.169 0 2.116.53 2.116 1.184-.001.654-.948 1.184-2.116 1.184z"/><path d="m316.428 313.927c0-.654-.947-1.183-2.116-1.183-1.168 0-2.116.53-2.116 1.183 0 .654.947 1.184 2.116 1.184s2.116-.53 2.116-1.184z"/></g></svg>