<svg width="62" height="71" viewBox="0 0 62 71" fill="none" xmlns="http://www.w3.org/2000/svg">
<g filter="url(#filter0_i_2057_1623)">
<path d="M45.6995 32.5611L40.8887 31.4924L44.6304 36.8359V53.4008L57.4594 42.7138V24.5459L51.5795 26.6833L45.6995 32.5611Z" fill="url(#paint0_linear_2057_1623)"/>
<path d="M15.7652 32.5611L20.5761 31.4924L16.8343 36.8359V53.4008L4.00537 42.7138V24.5459L9.88527 26.6833L15.7652 32.5611Z" fill="url(#paint1_linear_2057_1623)"/>
<path fill-rule="evenodd" clip-rule="evenodd" d="M18.4385 37.9046L22.7148 31.4924L25.3875 33.0955H36.0783L38.751 31.4924L43.0273 37.9046V61.9504L39.8201 66.7596L36.0783 70.5H25.3875L21.6457 66.7596L18.4385 61.9504V37.9046Z" fill="url(#paint2_linear_2057_1623)"/>
<path d="M44.6304 63.5535L51.5794 56.6069V49.6604L44.6304 55.5382V63.5535Z" fill="url(#paint3_linear_2057_1623)"/>
<path d="M16.8343 63.5535L9.88525 56.6069V49.6604L16.8343 55.5382V63.5535Z" fill="url(#paint4_linear_2057_1623)"/>
<path fill-rule="evenodd" clip-rule="evenodd" d="M23.7832 0.5L19.5068 10.6527L26.4558 30.958H29.6632V0.5H23.7832ZM31.8013 0.5V30.958H35.543L41.9575 10.6527L37.6812 0.5H31.8013Z" fill="url(#paint5_linear_2057_1623)"/>
<path d="M26.4561 30.958L3.47087 22.4083L0.263672 9.04956L20.0416 10.6526L26.9906 30.958H26.4561Z" fill="url(#paint6_linear_2057_1623)"/>
<path d="M35.5433 30.958L58.5285 22.4083L61.7357 9.04956L41.4232 10.6526L35.0088 30.958H35.5433Z" fill="url(#paint7_linear_2057_1623)"/>
<path d="M43.0269 9.04961L54.2523 7.98091L46.7687 0.5H39.2852L43.0269 9.04961Z" fill="url(#paint8_linear_2057_1623)"/>
<path d="M18.4377 9.04961L7.2124 7.98091L14.6959 0.5H22.1795L18.4377 9.04961Z" fill="url(#paint9_linear_2057_1623)"/>
</g>
<defs>
<filter id="filter0_i_2057_1623" x="0.263672" y="0.5" width="61.4722" height="85" filterUnits="userSpaceOnUse" color-interpolation-filters="sRGB">
<feFlood flood-opacity="0" result="BackgroundImageFix"/>
<feBlend mode="normal" in="SourceGraphic" in2="BackgroundImageFix" result="shape"/>
<feColorMatrix in="SourceAlpha" type="matrix" values="0 0 0 0 0 0 0 0 0 0 0 0 0 0 0 0 0 0 127 0" result="hardAlpha"/>
<feOffset dy="20"/>
<feGaussianBlur stdDeviation="7.5"/>
<feComposite in2="hardAlpha" operator="arithmetic" k2="-1" k3="1"/>
<feColorMatrix type="matrix" values="0 0 0 0 0 0 0 0 0 0 0 0 0 0 0 0 0 0 0.2 0"/>
<feBlend mode="normal" in2="shape" result="effect1_innerShadow_2057_1623"/>
</filter>
<linearGradient id="paint0_linear_2057_1623" x1="49.174" y1="24.5459" x2="49.174" y2="53.4008" gradientUnits="userSpaceOnUse">
<stop stop-color="#41B883"/>
<stop offset="1" stop-color="#2A815A"/>
</linearGradient>
<linearGradient id="paint1_linear_2057_1623" x1="12.2907" y1="24.5459" x2="12.2907" y2="53.4008" gradientUnits="userSpaceOnUse">
<stop stop-color="#41B883"/>
<stop offset="1" stop-color="#2A815A"/>
</linearGradient>
<linearGradient id="paint2_linear_2057_1623" x1="30.7329" y1="31.4924" x2="30.7329" y2="70.5" gradientUnits="userSpaceOnUse">
<stop stop-color="#41B883"/>
<stop offset="1" stop-color="#2A815A"/>
</linearGradient>
<linearGradient id="paint3_linear_2057_1623" x1="48.1049" y1="49.6604" x2="48.1049" y2="63.5535" gradientUnits="userSpaceOnUse">
<stop stop-color="#41B883"/>
<stop offset="1" stop-color="#2A815A"/>
</linearGradient>
<linearGradient id="paint4_linear_2057_1623" x1="13.3598" y1="49.6604" x2="13.3598" y2="63.5535" gradientUnits="userSpaceOnUse">
<stop stop-color="#41B883"/>
<stop offset="1" stop-color="#2A815A"/>
</linearGradient>
<linearGradient id="paint5_linear_2057_1623" x1="30.7322" y1="0.5" x2="30.7322" y2="30.958" gradientUnits="userSpaceOnUse">
<stop stop-color="#41B883"/>
<stop offset="1" stop-color="#2A815A"/>
</linearGradient>
<linearGradient id="paint6_linear_2057_1623" x1="13.6272" y1="9.04956" x2="13.6272" y2="30.958" gradientUnits="userSpaceOnUse">
<stop stop-color="#41B883"/>
<stop offset="1" stop-color="#2A815A"/>
</linearGradient>
<linearGradient id="paint7_linear_2057_1623" x1="48.3723" y1="9.04956" x2="48.3723" y2="30.958" gradientUnits="userSpaceOnUse">
<stop stop-color="#41B883"/>
<stop offset="1" stop-color="#2A815A"/>
</linearGradient>
<linearGradient id="paint8_linear_2057_1623" x1="46.7687" y1="0.5" x2="46.7687" y2="9.04961" gradientUnits="userSpaceOnUse">
<stop stop-color="#41B883"/>
<stop offset="1" stop-color="#2A815A"/>
</linearGradient>
<linearGradient id="paint9_linear_2057_1623" x1="14.6959" y1="0.5" x2="14.6959" y2="9.04961" gradientUnits="userSpaceOnUse">
<stop stop-color="#41B883"/>
<stop offset="1" stop-color="#2A815A"/>
</linearGradient>
</defs>
</svg>