<svg width="165" height="40" viewBox="0 0 165 40" fill="none" xmlns="http://www.w3.org/2000/svg">
<path fill-rule="evenodd" clip-rule="evenodd" d="M128.062 32C128.438 32 128.656 31.8125 128.75 31.4375L134.031 7.6875C134.125 7.25 133.938 7 133.469 7H130.5C130.125 7 129.906 7.1875 129.812 7.5625L126.5 24.3125L123.219 7.5625C123.125 7.1875 122.906 7 122.531 7H119.562C119.094 7 118.906 7.25 119 7.6875L124.25 31.4375C124.344 31.8125 124.562 32 124.938 32H128.062ZM144.562 32C147.5 32 149.062 30.4375 149.062 27.5V7.625C149.062 7.28125 148.781 7 148.438 7H145.562C145.219 7 144.938 7.28125 144.938 7.625V26.625C144.938 27.4688 144.5 27.875 143.688 27.875H142.062C141.25 27.875 140.812 27.4688 140.812 26.625V7.625C140.812 7.28125 140.531 7 140.188 7H137.188C136.844 7 136.562 7.28125 136.562 7.625V27.5C136.562 30.4375 138.125 32 141.062 32H144.562ZM164.656 31.5C164.656 31.8125 164.531 32 164.156 32H152.656C152.375 32 152.188 31.8125 152.188 31.5V7.5C152.188 7.1875 152.375 7 152.656 7H164.156C164.531 7 164.656 7.1875 164.656 7.5V10.625C164.656 10.9375 164.531 11.1562 164.156 11.1562H156.344V17.4062H162.312C162.625 17.4062 162.812 17.5938 162.812 17.9375V21.0312C162.812 21.375 162.625 21.5625 162.312 21.5625H156.344V27.875H164.156C164.531 27.875 164.656 28.0312 164.656 28.375V31.5Z" fill="#4f8ff7"/>
<path fill-rule="evenodd" clip-rule="evenodd" d="M48.0938 32C48.4375 32 48.5938 31.8125 48.5938 31.5V23.625H52.3438C55.2812 23.625 56.8438 22.0312 56.8438 19.125V11.5C56.8438 8.5625 55.2812 7 52.3438 7H44.8438C44.5312 7 44.3438 7.1875 44.3438 7.5V31.5C44.3438 31.8125 44.5312 32 44.8438 32H48.0938ZM51.3438 19.5H48.5938V11.125H51.3438C52.1875 11.125 52.5938 11.5625 52.5938 12.375V18.25C52.5938 19.0312 52.1875 19.5 51.3438 19.5ZM63.9062 31.5C63.9062 31.8125 63.7188 32 63.4062 32H60.1562C59.8438 32 59.6562 31.8125 59.6562 31.5V7.5C59.6562 7.1875 59.8438 7 60.1562 7H68C70.9375 7 72.5 8.5625 72.5 11.5V19.125C72.5 21.2188 71.7188 22.5938 70.2188 23.25L72.375 31.4375C72.4688 31.8125 72.2812 32 71.9375 32H68.6875C68.375 32 68.2188 31.8438 68.1562 31.5625L66.0625 23.625H63.9062V31.5ZM67 19.5H63.9062V11.125H67C67.8125 11.125 68.25 11.5625 68.25 12.375V18.25C68.25 19.0625 67.8125 19.5 67 19.5ZM79.875 31.5C79.875 31.8125 79.6875 32 79.375 32H76.125C75.7812 32 75.625 31.8125 75.625 31.5V7.5C75.625 7.1875 75.7812 7 76.125 7H79.375C79.6875 7 79.875 7.1875 79.875 7.5V31.5ZM86.5 32C86.9062 32 87.125 31.7812 87.125 31.375V17.3125H87.3438L90.4375 31.4375C90.5312 31.8125 90.75 32 91.125 32H92.6562C93.0312 32 93.25 31.8125 93.3438 31.4375L96.4375 17.3125H96.6562V31.375C96.6562 31.7812 96.875 32 97.2812 32H100.188C100.594 32 100.812 31.7812 100.812 31.375V7.625C100.812 7.21875 100.594 7 100.188 7H96.0625C95.6875 7 95.4688 7.1875 95.375 7.5625L91.9062 23.125L88.4375 7.5625C88.3438 7.1875 88.125 7 87.75 7H83.625C83.2188 7 83 7.21875 83 7.625V31.375C83 31.7812 83.2188 32 83.625 32H86.5ZM116.406 31.5C116.406 31.8125 116.281 32 115.906 32H104.406C104.125 32 103.938 31.8125 103.938 31.5V7.5C103.938 7.1875 104.125 7 104.406 7H115.906C116.281 7 116.406 7.1875 116.406 7.5V10.625C116.406 10.9375 116.281 11.1562 115.906 11.1562H108.094V17.4062H114.062C114.375 17.4062 114.562 17.5938 114.562 17.9375V21.0312C114.562 21.375 114.375 21.5625 114.062 21.5625H108.094V27.875H115.906C116.281 27.875 116.406 28.0312 116.406 28.375V31.5Z" fill="white"/>
<path d="M25.574 18.0458L22.8662 17.4442L24.9723 20.4519V29.7755L32.1932 23.7603V13.5343L28.8836 14.7374L25.574 18.0458Z" fill="#4f8ff7"/>
<path d="M8.72528 18.0458L11.4331 17.4442L9.32702 20.4519V29.7755L2.10615 23.7603V13.5343L5.41571 14.7374L8.72528 18.0458Z" fill="#4f8ff7"/>
<path fill-rule="evenodd" clip-rule="evenodd" d="M10.2295 21.0534L12.6364 17.4442L14.1408 18.3465H20.1582L21.6625 17.4442L24.0695 21.0534V34.5877L22.2643 37.2946L20.1582 39.3999H14.1408L12.0347 37.2946L10.2295 34.5877V21.0534Z" fill="#4f8ff7"/>
<path d="M24.9722 35.49L28.8835 31.5801V27.6702L24.9722 30.9786V35.49Z" fill="#4f8ff7"/>
<path d="M9.32715 35.49L5.41584 31.5801V27.6702L9.32715 30.9786V35.49Z" fill="#4f8ff7"/>
<path fill-rule="evenodd" clip-rule="evenodd" d="M21.0611 0H20.1585V5.7988L21.8144 1.78842L21.0611 0ZM19.5764 7.20849L18.955 7.51908V0H17.7515V11.6281L19.5764 7.20849ZM17.7515 14.2483L22.3607 3.08549L23.4681 5.7145L19.8576 17.1435H17.7515V14.2483ZM16.5481 11.6718V0H15.3446V7.51908L14.8436 7.26869L16.5481 11.6718ZM14.1411 5.45385V0H13.2385L12.6087 1.49519L14.1411 5.45385ZM12.0499 2.82181L16.5481 14.4419V17.1435H14.7428L10.8315 5.7145L12.0499 2.82181Z" fill="#ffffff"/>
<path fill-rule="evenodd" clip-rule="evenodd" d="M1.80522 12.3313L14.7426 17.1436H15.0435L11.1322 5.71455L0 4.81226L1.80522 12.3313ZM32.7948 12.3313L19.8574 17.1436H19.5565L23.167 5.71455L34.6 4.81226L32.7948 12.3313Z" fill="#4f8ff7"/>
<path d="M24.0695 4.81221L30.3877 4.21069L26.1756 0H21.9634L24.0695 4.81221Z" fill="#ffffff"/>
<path d="M10.2294 4.81221L3.9111 4.21069L8.12328 0H12.3354L10.2294 4.81221Z" fill="#ffffff"/>
<path d="M4.7002 5.19995L11.2002 5.69995L15.1002 17.15H14.7002L10.5002 15.6L4.7002 5.19995Z" fill="#ffffff"/>
<path d="M29.7999 5.19995L23.0999 5.69995L19.3999 17.15L19.8999 17.14L23.7999 15.7L29.7999 5.19995Z" fill="#ffffff"/>
<path d="M12.1001 18.2L12.6001 17.4L14.3001 18.2H20.3001L21.6001 17.4L22.2001 18.2L17.1501 26.8L12.1001 18.2Z" fill="#ffffff"/>
<path fill-rule="evenodd" clip-rule="evenodd" d="M12.0298 0L17.1215 13.1536L22.5527 0H12.0298Z" fill="#4f8ff7"/>
</svg>
