<svg width="32" height="20" viewBox="0 0 32 20" fill="none" xmlns="http://www.w3.org/2000/svg">
<path d="M11.7036 0.381504C11.459 0.137215 11.1274 0 10.7817 0C10.436 0 10.1045 0.137215 9.85989 0.381504L1.16324 9.07816C0.918953 9.32275 0.781738 9.65431 0.781738 10C0.781738 10.3457 0.918953 10.6773 1.16324 10.9218L9.85989 19.6185C10.1045 19.8628 10.436 20 10.7817 20C11.1274 20 11.459 19.8628 11.7036 19.6185C11.9479 19.3739 12.0851 19.0423 12.0851 18.6967C12.0851 18.351 11.9479 18.0194 11.7036 17.7748L3.92878 10L11.7036 2.22519C11.9479 1.9806 12.0851 1.64904 12.0851 1.30335C12.0851 0.957657 11.9479 0.626098 11.7036 0.381504V0.381504Z" fill="#4f8ff7"/>
<path d="M30.8364 9.07814L22.1397 0.381485C21.8925 0.151058 21.5654 0.0256125 21.2274 0.0315753C20.8895 0.0375381 20.567 0.174444 20.328 0.41345C20.089 0.652457 19.9521 0.974903 19.9461 1.31286C19.9402 1.65081 20.0656 1.97789 20.2961 2.22518L28.0709 9.99998L20.2961 17.7748C20.0518 18.0194 19.9146 18.3509 19.9146 18.6966C19.9146 19.0423 20.0518 19.3739 20.2961 19.6185C20.5406 19.8628 20.8722 20 21.2179 20C21.5636 20 21.8952 19.8628 22.1397 19.6185L30.8364 10.9218C31.0807 10.6772 31.2179 10.3457 31.2179 9.99998C31.2179 9.65429 31.0807 9.32273 30.8364 9.07814Z" fill="#4f8ff7"/>
</svg>
