<svg width="30" height="30" viewBox="0 0 30 30" fill="none" xmlns="http://www.w3.org/2000/svg">
<path d="M11.1294 8.63573e-05H2.41977C1.08585 8.63573e-05 0.000431127 1.0855 0.000431127 2.41942V11.129C0.000431127 12.4629 1.08585 13.5484 2.41977 13.5484H11.1294C12.4633 13.5484 13.5487 12.4629 13.5487 11.129V2.41942C13.5487 1.0855 12.4635 8.63573e-05 11.1294 8.63573e-05ZM6.77474 9.67742C6.28264 9.67742 5.81616 9.58562 5.39425 9.42395L3.87137 9.67742L4.06578 8.51165C3.64151 8.02697 3.3877 7.42718 3.3877 6.77448C3.3877 5.17089 4.90419 3.87111 6.77468 3.87111C8.64517 3.87111 10.1617 5.17089 10.1617 6.77448C10.1617 8.37807 8.64523 9.67742 6.77474 9.67742ZM27.581 16.4517H18.8714C17.5375 16.4517 16.4521 17.5371 16.4521 18.8711V27.5807C16.4521 28.9146 17.5375 30 18.8714 30H27.581C28.9149 30 30.0003 28.9146 30.0003 27.5807V18.8711C30.0003 17.5369 28.9149 16.4517 27.581 16.4517ZM25.8273 23.4272L22.1503 25.8786C21.9896 25.9852 21.7743 25.8701 21.7743 25.6771V20.7746C21.7743 20.5816 21.9896 20.4658 22.1503 20.5735L25.8273 23.0249C25.971 23.1204 25.971 23.3313 25.8273 23.4272ZM11.1289 16.4517H2.41933C1.08542 16.4517 0 17.5371 0 18.8711V27.5807C0 28.9146 1.08542 30 2.41933 30H11.1289C12.4629 30 13.5483 28.9146 13.5483 27.5807V18.8711C13.5483 17.5369 12.4631 16.4517 11.1289 16.4517ZM9.67725 25.1613C9.67725 25.696 9.24421 26.129 8.7096 26.129H4.83858C4.30395 26.129 3.87093 25.6959 3.87093 25.1613V22.258H9.67725V25.1613ZM9.67725 21.774H3.87093V21.29C3.87093 20.7554 4.30397 20.3224 4.83858 20.3224H8.7096C9.24423 20.3224 9.67725 20.7554 9.67725 21.29V21.774ZM27.5803 0H18.8707C17.5368 0 16.4514 1.08542 16.4514 2.41933V11.1289C16.4514 12.4629 17.5368 13.5483 18.8707 13.5483H27.5803C28.9142 13.5483 29.9997 12.4629 29.9997 11.1289V2.41933C29.9997 1.08542 28.9142 0 27.5803 0ZM26.6123 8.95154C26.6123 9.08519 26.504 9.19354 26.3703 9.19354H20.08C19.9463 9.19354 19.838 9.08519 19.838 8.95154V5.79811L23.225 7.28012L26.6119 5.79811L26.6123 8.95154ZM26.6123 5.27026L23.2253 6.75193L19.8384 5.27026V4.59691C19.8384 4.46325 19.9467 4.3549 20.0804 4.3549H26.3707C26.5044 4.3549 26.6127 4.46325 26.6127 4.59691L26.6123 5.27026Z" fill="#4f8ff7"/>
</svg>
