<svg height="41" viewBox="0 0 104 41" width="104" xmlns="http://www.w3.org/2000/svg" xmlns:xlink="http://www.w3.org/1999/xlink"><mask id="a" fill="#fff"><path d="m.45691139 16.5454545h30.97944301v-16.36779055h-30.97944301z" fill="none"/></mask><mask id="b" fill="#fff"><path d="m0 42h104v-42h-104z" fill="none"/></mask><g fill="#fff" fill-rule="evenodd" transform=""><path d="m44.4602074 22.9090909c1.429342.5165172 2.8592805 1.0696119 4.2486534 1.6969697-4.4473057 1.6598381-8.7753006 3.652198-12.8652707 5.9393939-1.3899695-.6644894-2.8193114-1.3284246-4.2486534-1.9186509 4.1293427-2.2129327 8.4179651-4.1315836 12.8652707-5.7177127z"/><path d="m39.7874082 21.6363636c-4.6605206 1.5440739-9.1598965 3.5470442-13.4582943 5.9669083 1.3658066.5429021 2.7316131 1.0851773 4.0575861 1.6694554 4.1378567-2.5452456 8.516525-4.6735975 13.056338-6.342426-1.2052654-.4595234-2.4105309-.9184199-3.6556298-1.2939377"/><path d="m73.8912607 30.1515694c.0848709.181688.2973671.2422507.5098634.2422507.1269872 0 .2546126 0 .3394835-.0605627.0427545-.0300536.0848708-.0906163.0848708-.1516344 0-.1211254-.1269872-.1816881-.2973671-.1816881l-.296729-.0605626c-.085509-.0305091-.2124962-.0305091-.2973671-.0910718-.085509-.0605627-.1276253-.1516344-.1276253-.2422507 0-.2427062.2973671-.3333225.5947342-.3333225.2546126 0 .5098633.0906163.5947342.3028134l-.2124962.0305091c0-.1215808-.2124963-.2121971-.4249925-.2121971-.1269873 0-.3394835.0605627-.3394835.181688 0 .1516345.1269872.1816881.2973671.2121971l.2546126.0305091c.1276254.0300536.2546126.0605627.3401216.0906163.0848709.0910717.1269873.1516344.1269873.2727598 0 .0910717-.0421164.2121971-.1697418.2727598-.1276253.0610181-.2973671.0910717-.4671088.0910717-.3401216 0-.5526179-.1215807-.6796051-.3638315z"/><path d="m75.1728658 30.5454545h-.1348911v-1.2727272h.2363129l.4386495 1.0178949.371204-1.0178949h.2702893v1.2727272h-.1688674v-1.1139949l-.4391566 1.1139949h-.1348911l-.4386495-1.1139949z"/><path d="m55.2911392 22.9882078c-3.7653717-1.5448894-7.6530996-2.843989-11.623218-3.8972987-1.4319972.351279-2.8240288.7373695-4.1742503 1.12346 4.0924746 1.0533098 8.1031734 2.3877482 11.9503209 3.9674491 1.2684458-.4214294 2.5375064-.8075199 3.8471474-1.1936104"/><path d="m61.8734177 21.8125512c-3.8364306-1.6053953-7.8370761-2.9366557-11.9207586-3.9943694-1.3199155.235309-2.5983126.5094439-3.8767097.8224048 4.0421639 1.1353657 8.0019106 2.5454545 11.7962031 4.2685043 1.3199156-.3917894 2.6813497-.7835788 4.0012652-1.0965397"/><path d="m26.9067342.17766395c-9.504 3.0004326-18.40162028 7.29141066-26.44982281 12.64586205 2.02207595 1.17758 3.96334177 2.3928151 5.86389874 3.7221568 7.60344307-5.6585455 16.05630377-10.36772418 25.11554427-13.93754863-1.4965063-.87348589-2.9930126-1.67109091-4.5296202-2.43047022" mask="url(#a)" transform="translate(43.443038 24.181818)"/><path d="m63.5492619 21.6363636c-9.576421 2.5790549-18.5643765 6.7697165-26.6885024 12.3310306 1.8049027.9268857 3.6109847 1.894334 5.3769708 2.9416967 7.9672804-5.641834 16.7983904-10.0746603 26.2179659-12.9757943-1.6091406-.8058033-3.2182813-1.6116066-4.9064343-2.296933"/><path d="m37.5189873 9.9791499c.5916718 0 .8505629-.51655472.8505629-2.36107629 0-1.69709286-.1850016-2.32449623-.8505629-2.32449623-.6655612 0-.8505628.62740337-.8505628 2.32449623 0 1.84452157.2588911 2.36107629.8505628 2.36107629m0-6.16096808c2.1816854 0 3.2911393 1.62337851 3.2911393 3.79989179 0 2.25022763-1.0722314 3.83647189-3.2911393 3.83647189-2.2555748 0-3.2911392-1.58624426-3.2911392-3.83647189 0-2.17651328 1.1094539-3.79989179 3.2911392-3.79989179"/><path d="m41.9144565 5.32684199h-1.1043299v-1.76237662h1.1043299v-.88088746c0-1.96274241 1.0194796-2.68357791 2.802612-2.68357791.5097398 0 .9346293.08002598 1.3588809.12033982v1.96274241c-.1275945-.04031384-.3400392-.08062768-.5091019-.08062768-.7221845 0-.9767355.28039177-.9767355.76054764v.80146318h1.4858374v1.76237662h-1.4858374v6.12770351h-2.6756555z"/><path d="m13.1036217 7.78450196c-.8464889.07406917-1.5010144.40765885-1.5010144 1.33435876 0 .51904105.2694425.77856158.7314265.77856158.2694425 0 .5770463-.18545137.7695879-.44497189zm0-1.74201761c0-.44497189-.1925416-.74124854-.615786-.74124854-.6157859 0-.8083275.51848414-.8083275.96345603l-2.15496169-.44497189c.26886429-1.40842792 1.65481629-2.00153813 3.04019019-2.00153813 1.4622748 0 3.0020287.59311021 3.0020287 2.22430253v4.07770235c0 .8153177.1156406 1.0748382.230703 1.1862204h-2.5400448c-.0381614-.2227644-.076901-.5563541-.076901-.6671793-.4232444.4076588-1.1546709.8153177-1.8473578.8153177-1.2315719 0-2.15553995-.8153177-2.11680037-2.15023342.03873959-1.89015593 2.27060227-2.48382306 3.88725727-2.66871751z"/><path d="m19.6983025 6.12414213v5.33040337h-2.5843784v-7.44779747h2.5036924l.0406463.75653673c.564802-.52934852 1.251543-.94510294 2.2610279-.94510294 1.1308172 0 1.7769118.71791473 1.7769118 1.73912573v5.89723795h-2.5843784v-5.14126919c0-.41575442-.1619787-.64294263-.606055-.64294263-.2827043 0-.5654086.15164813-.8074666.45380845"/><path d="m25.0126582 0h2.4073237v5.80932358h.0372966l1.7681962-2.41420049h2.369462l-1.9931058 2.45476496 1.9931058 5.60465745h-2.4819168l-1.1663653-3.51804577h-.0378617l-.488811.61399855v2.90404722h-2.4073237z"/><path d="m2.69890313 4.54076202h.95230851c.99226134 0 1.3894044-.57281946 1.3894044-1.22738248 0-1.10445984-.71438046-1.26794695-1.34945157-1.26794695h-.99226134zm0 4.78660729h1.03221417c.63507111 0 1.42876091-.28640973 1.42876091-1.43204866 0-.85861459-.51640523-1.43143405-1.42876091-1.43143405h-1.03221417zm3.13599902-3.84563454c1.19023656.40933236 2.06383203 1.43204866 2.06383203 2.90527641 0 1.96307442-1.50866658 3.06753432-3.65180795 3.06753432h-4.24692623v-11.4545455h4.36618841c1.98452267 0 3.25466489 1.22738248 3.25466489 2.78173916 0 1.51379221-.99226134 2.29127786-1.78595115 2.61825206z"/><path d="m97.3951497 7.78450196c-.8464245.07406917-1.5009002.40765885-1.5009002 1.33435876 0 .51904105.269422.77856158.6926342.77856158.3081587 0 .5775806-.18545137.808266-.44497189zm0-1.74201761c0-.44497189-.2306854-.74124854-.6544757-.74124854-.5770025 0-.7695294.51848414-.8076878.96345603l-2.1166393-.44497189c.269422-1.40842792 1.6546904-2.00153813 3.0399588-2.00153813 1.4627417 0 3.0018003.59311021 3.0018003 2.22430253v4.07770235c0 .8153177.1156318 1.0748382.192527 1.1862204h-2.5016931c-.0381585-.2227644-.0768951-.5563541-.0768951-.6671793-.4232122.4076588-1.1545831.8153177-1.8853757.8153177-1.1933197 0-2.1553759-.8153177-2.1172175-2.15023342.0774733-1.89015593 2.3091662-2.48382306 3.9256981-2.66871751z"/><path d="m74.0834229 6.76931299c0-.66393524-.0769147-1.47584269-.924133-1.47584269-.6928105 0-.9623011.81190745-.9235546 1.47584269zm-1.8476876 1.40213368c-.0387465.62680363.1538294 1.7335471 1.154877 1.7335471.5771494 0 1.0779623-.44280823 1.1930452-.99590286l1.65569.55309463c-.1156612.33196762-.8472182 1.99235996-3.0413111 1.99235996-2.3485005 0-3.4258845-1.80781035-3.4258845-3.83674767 0-2.06551471 1.154877-3.79961601 3.387138-3.79961601 2.3485005 0 3.1951405 1.95522831 3.1951405 3.87332502v.47993983z"/><path d="m82.9367089 11.4545455h2.6329114v-7.63636368h-2.6329114z" mask="url(#b)"/><path d="m82.9367089 2.54545455h2.6329114v-2.54545455h-2.6329114z" mask="url(#b)"/><path d="m91.3135014 6.73239288c0-.29485742 0-.66398343-.1177194-.92226079-.1171307-.29541165-.3131335-.51655471-.705139-.51655471-.8228584 0-.9399891.95939508-.9399891 2.43479064 0 1.62337851.2742861 2.17706752.9399891 2.17706752.8622944 0 .9405778-.84854643.9405778-1.40223544l1.9588503.25827735c-.1960028 1.77080725-1.2931473 2.69306805-3.0954308 2.69306805-2.2331365 0-3.4085644-1.84452161-3.4085644-3.65246313 0-1.99195028 1.1754279-3.98390055 3.5262837-3.98390055 2.6251419 0 3.0559948 2.17651328 3.0559948 2.91421106z" mask="url(#b)"/><path d="m52.2175041 7.11806768h1.9445188l-.8452497-4.66343443h-.0850965zm-.718875-7.11806768h3.9315858l2.4938357 11.4545455h-2.8742298l-.4648556-2.33171726h-2.7478552l-.549317 2.33171726h-2.5789322z" mask="url(#b)"/><path d="m77.6708861 4.00730194h2.6117114v.98308385h.0424c.5474025-.79396374 1.5580405-1.17220397 2.6117114-1.17220397v2.41937447c-.3373013-.11301773-.6322025-.18855219-1.095438-.18855219-.7163696 0-1.1796051.22660338-1.4745063.56679242v4.83874898h-2.6958785z" mask="url(#b)"/><path d="m64.4607878 6.12414213v5.33040337h-2.5424349v-5.10378313c0-.41575443-.1206354-.68042869-.6049953-.68042869-.2418768 0-.6456111.18913419-.8474783.45380845v5.33040337h-2.5418287v-7.44779747h2.501819l.0400097.75653673c.5649856-.4912945 1.3718479-.94510294 2.2999519-.94510294.8074686 0 1.3318382.41575442 1.573715.982589h.0406159c.443744-.45324048 1.2105967-.982589 2.259336-.982589 1.0899613 0 1.8161981.64294263 1.8161981 1.7010717v5.93529198h-2.5424349v-5.10378313c0-.41575443-.1212415-.68042869-.6049952-.68042869-.3231087 0-.6862271.26467426-.8474783.45380845" mask="url(#b)"/><path d="m101.606575 10.1818182c0 .5658926.478973.9894268 1.101062.9894268.574623 0 1.052877-.4235342 1.052877-.9894268 0-.56589267-.478254-1.03758792-1.052877-1.03758792-.622089 0-1.101062.47169525-1.101062 1.03758792m-.239486 0c0-.70754289.574623-1.27272729 1.340548-1.27272729.71774 0 1.292363.5651844 1.292363 1.27272729 0 .7068346-.574623 1.2727273-1.292363 1.2727273-.765925 0-1.340548-.5658927-1.340548-1.2727273" mask="url(#b)"/><path d="m103.210127 10.6910366c.210316 0 .526582.042063.526582-.1695271 0-.1701643-.158133-.2122274-.36845-.2122274h-.421424v.3817545zm.736899.7635089h-.263292l-.473607-.5939819h-.263292v.5939819h-.263291v-1.2727273h.736899c.105159 0 .263291 0 .36845.0427004.158133.0847635.211107.169527.211107.2969909 0 .2542906-.263291.3390541-.526582.3390541z" mask="url(#b)"/></g></svg>