<svg height="37" viewBox="0 0 38 37" width="38" xmlns="http://www.w3.org/2000/svg" xmlns:xlink="http://www.w3.org/1999/xlink"><mask id="a" fill="#fff"><path d="m37.7204286 18.4802517v-18.20901032h-37.7204286v18.20901032 18.2090104h37.7204286z" fill="none"/></mask><g fill="none" fill-rule="evenodd" transform=""><path d="m18.8629286 36.1874c-10.1134286 0-18.3404286-7.9433103-18.3404286-17.708 0-9.76468966 8.227-17.70537931 18.3404286-17.70537931 10.1147857 0 18.335 7.94068965 18.335 17.70537931 0 9.7646897-8.2202143 17.708-18.335 17.708m0-35.91655172c-10.40114289 0-18.8629286 8.17-18.8629286 18.20855172 0 10.0411724 8.46178571 18.2098621 18.8629286 18.2098621 10.3984285 0 18.8575-8.1686897 18.8575-18.2098621 0-10.03855172-8.4590715-18.20855172-18.8575-18.20855172" fill="#231f20" mask="url(#a)" transform="translate(0 .039103)"/><g fill="#fff"><path d="m8.11313571 11.3701793c.01764286.0157241.03528572.0301379.05292858.0432414.00407142.0013103.01492857-.0131035.01492857-.0144138.36914285-.4455172.73964285-.8897241 1.10335714-1.3313103.13435714-.16117246.27007143-.32234488.40307143-.48613798.13707143-.16117241.16557143-.37344828.08685714-.56475862-.10314286-.19917241-.30264286-.33151724-.53742857-.32365517-.19135714.00655172-.34064286.10613793-.45735714.24634483-.16421429.19524137-.32571429.39310344-.48857143.58965517-.33521429.39965517-.665.80455177-.9975 1.20682757.171.1349655.34607143.2673104.51842857.4009655.10314286.0773104.20221429.1546207.30128571.2332414"/><path d="m29.5854429 12.9006621-.6473572-1.0679311 2.2284286-2.82379307-3.3412857 1.47937927-.9391429-.83862065 3.0440714-3.86551724.9432143.84124138-1.7602143 2.22889655 2.8106429-1.24482758.8251429.99062068-1.8755715 2.37434486 2.6328572-1.16751727.6487143 1.06924137zm-10.7227858 16.4880689c-6.2157142 0-11.25478567-4.8666207-11.25478567-10.8693103 0-6.004 5.03907147-10.86800001 11.25478567-10.86800001 6.2170715 0 11.2575 4.86400001 11.2575 10.86800001 0 6.0026896-5.0404285 10.8693103-11.2575 10.8693103zm-14.28257139-19.1192413c-.13164285-.1074483-.26735714-.2135863-.40578571-.31841384-.00407143-.00131034-.0475-.03668965-.0475-.038.02442857-.02882758.04342857-.05634483.07192857-.08386207.3515-.42324138.69757143-.84517241 1.04907143-1.26710345.40985714-.49137931.81564286-.98668965 1.2255-1.47544827.07735714-.09172414.15335714-.18868966.23342857-.28434483.13571429-.1637931.32028572-.29089655.52385714-.3682069.44107143-.15593103.94321429-.05372413 1.27842858.26206897.16285714.15462069.27957142.35117241.33385714.56475862.05564286.22275862.03528571.43896552-.02985714.65386207.02985714-.02358621.06107142-.05110345.09364285-.07337931.39492857-.26731035.91064286-.34331035 1.35849996-.14675862.4465.19655172.7342143.58572414.8020715 1.05089655.0176428.17296552.0067857.34855172-.0434286.5202069-.1031429.32496551-.342.57131034-.5577857.82944828-.4193572.5071034-.84007144 1.0102759-1.2567143 1.516069-.34878571.421931-.70028571.8412413-1.04907143 1.2631724-.02714286.0327586-.05021428.0615862-.07871428.0930345-.00407143.007862-.03257143-.0222759-.04071429-.0288276-.12621429-.0995862-.25921429-.1978621-.38678571-.300069-.51164286-.3917931-1.01785715-.7875172-1.5295-1.1793103-.513-.3957242-1.02871429-.7966897-1.54442858-1.1897931zm11.37285719-8.0546897 1.6869285-.18082759 1.2227857 3.44096552 1.2187143-3.44096552 1.6882857.18082759.1872858 4.89282759-1.3137143-.18082759-.1275715-3.26144828-1.1861428 3.26144828h-.9391429l-1.1888571-3.26144828-.1207857 3.26144828-1.3137143.18082759zm2.9097142-1.08627586c-9.94921424 0-18.01199996 7.78606896-18.01199996 17.39089656 0 9.6035172 8.06278572 17.3908965 18.01199996 17.3908965 9.9465 0 18.012-7.7873793 18.012-17.3908965 0-9.6048276-8.0655-17.39089656-18.012-17.39089656z"/><path d="m8.07133571 8.26715172c.04207143-.17820689 0-.36296551-.12892857-.50186206-.15742857-.16379311-.41257143-.22013794-.63242857-.13496552-.15742857.06289655-.25242857.19524138-.35421428.32365517-.40035715.47565517-.79257143.95131035-1.1875 1.42696552-.00407143.00655172-.08957143.10744827-.08278572.11006896.07464286.06158621.15607143.12186207.23885714.18606897.21035715.16510345.42342858.32889654.63107143.49400004.21171429-.25420694.41528572-.50317246.62564286-.75606901.21035714-.25027586.41528571-.49924138.62564286-.75082758.10042857-.12448276.21714285-.23979311.26464285-.39703449"/><path d="m8.17407143 18.5188966h10.68885717v-10.31765522c-5.8343572.14806896-10.53550003 4.68579312-10.68885717 10.31765522"/><path d="m18.8629286 28.8398276c5.833-.1493793 10.5341428-4.6897242 10.6875-10.3202759h-10.6875z"/></g></g></svg>