<svg height="65" viewBox="0 0 65 65" width="65" xmlns="http://www.w3.org/2000/svg"><g fill="none" fill-rule="evenodd" transform=""><path d="m39.8478261 0h-14.6956522c-13.8478261 0-25.1521739 11.3043478-25.1521739 25.1521739v14.6956522c0 13.8478261 11.3043478 25.1521739 25.1521739 25.1521739h14.6956522c13.8478261 0 25.1521739-11.3043478 25.1521739-25.1521739v-14.6956522c0-13.8478261-11.3043478-25.1521739-25.1521739-25.1521739zm23.7391304 39.8478261c0 13.0706522-10.6684782 23.7391304-23.7391304 23.7391304h-14.6956522c-13.0706522 0-23.73913042-10.6684782-23.73913042-23.7391304v-14.6956522c0-13.0706522 10.66847822-23.73913042 23.73913042-23.73913042h14.6956522c13.0706522 0 23.7391304 10.66847822 23.7391304 23.73913042zm-4.2391304-.2826087c0 10.8804348-8.9021739 19.7826087-19.7826087 19.7826087h-14.1304348c-10.8804348 0-19.78260869-8.9021739-19.78260869-19.7826087v-14.1304348c0-10.8804348 8.90217389-19.78260869 19.78260869-19.78260869h14.1304348c10.8804348 0 19.7826087 8.90217389 19.7826087 19.78260869z" fill="#222" fill-rule="nonzero"/><g fill="#fff" transform="translate(17 17)"><path d="m29.0483965 0h-27.83804665c-.66887755 0-1.21034985.5310656-1.21034985 1.18708782v22.55466848c0 .6560222.5414723 1.1870879 1.21034985 1.1870879h27.83804665c.6688776 0 1.2103499-.5310657 1.2103499-1.1870879v-22.55466848c0-.65602222-.5414723-1.18708782-1.2103499-1.18708782zm-13.6323615 23.7417563c-.6688776 0-1.2103499-.5310656-1.2103499-1.1870878s.5414723-1.1870878 1.2103499-1.1870878c.6688775 0 1.2103498.5310656 1.2103498 1.1870878s-.5414723 1.1870878-1.2103498 1.1870878zm13.6323615-3.5612634h-27.83804665v-18.39986117c0-.31239154.28666181-.59354391.60517493-.59354391h26.62769682c.3185131 0 .6051749.28115237.6051749.59354391z"/><path d="m22.0975219 28.3741756h-1.2103499c-.9873907 0-1.8155248-.8122179-1.8155248-1.7806317v-.5935439h-7.8354227v.5935439c0 .9684138-.8281341 1.7806317-1.81552479 1.7806317h-1.21034986c-.66887755 0-1.21034985.2499133-1.21034985.8746963v.2811524h16.339723v-.2811524c-.0318513-.6560222-.5733236-.8746963-1.2422011-.8746963z"/><path d="m2 2h25.417347v4.748351h-25.417347z"/><path d="m16 8h12.103499v5.935439h-12.103499z"/><path d="m2 8h12.103499v1.187088h-12.103499z"/><path d="m2 13h12.103499v1.187088h-12.103499z"/><path d="m2 11h12.103499v1.187088h-12.103499z"/><path d="m12 16h6.656924v3.561263h-6.656924z"/><path d="m2 16h8.153936v3.561263h-8.153936z"/><path d="m19 16h8.153936v1.187088h-8.153936z"/><path d="m19 18h8.153936v1.187088h-8.153936z"/></g></g></svg>