<svg height="65" viewBox="0 0 65 65" width="65" xmlns="http://www.w3.org/2000/svg"><g fill="none" fill-rule="evenodd"><path d="m39.8478261 0h-14.6956522c-13.8478261 0-25.1521739 11.3043478-25.1521739 25.1521739v14.6956522c0 13.8478261 11.3043478 25.1521739 25.1521739 25.1521739h14.6956522c13.8478261 0 25.1521739-11.3043478 25.1521739-25.1521739v-14.6956522c0-13.8478261-11.3043478-25.1521739-25.1521739-25.1521739zm23.7391304 39.8478261c0 13.0706522-10.6684782 23.7391304-23.7391304 23.7391304h-14.6956522c-13.0706522 0-23.73913042-10.6684782-23.73913042-23.7391304v-14.6956522c0-13.0706522 10.66847822-23.73913042 23.73913042-23.73913042h14.6956522c13.0706522 0 23.7391304 10.66847822 23.7391304 23.73913042zm-4.2391304-.2826087c0 10.8804348-8.9021739 19.7826087-19.7826087 19.7826087h-14.1304348c-10.8804348 0-19.78260869-8.9021739-19.78260869-19.7826087v-14.1304348c0-10.8804348 8.90217389-19.78260869 19.78260869-19.78260869h14.1304348c10.8804348 0 19.7826087 8.90217389 19.7826087 19.78260869z" fill="#222" fill-rule="nonzero"/><path d="m24 45.8547032c0 1.0349532.8556369 1.8743492 1.9106145 1.8743492h11.7181173c1.0549777 0 1.9106146-.8397084 1.9106146-1.8743492v-23.4543561h-15.5393464zm7.769514-1.9377646c.7540558 0 1.3676815.6019784 1.3676815 1.3414092 0 .7394307-.6136257 1.3414092-1.3676815 1.3414092-.7540559 0-1.3676816-.6019785-1.3676816-1.3414092 0-.7394308.6136257-1.3414092 1.3676816-1.3414092zm5.8588994-25.9169386h-11.7177989c-1.0549776 0-1.9106145.8390837-1.9106145 1.8743492v1.8993405h15.5393464v-1.8993405c-.0003185-1.0352655-.8556369-1.8743492-1.910933-1.8743492zm-9.2075698 2.3285665c-.2391453 0-.4337095-.1908713-.4337095-.4257897s.1945642-.4257896.4337095-.4257896c.2391452 0 .4337095.1908712.4337095.4257896s-.1945643.4257897-.4337095.4257897zm5.2793463-.1133982h-3.8610335c-.1760949 0-.3184357-.1399514-.3184357-.3123915s.1423408-.3123915.3184357-.3123915h3.8610335c.176095 0 .3184358.1399514.3184358.3123915s-.1426592.3123915-.3184358.3123915z" fill="#fff" fill-rule="nonzero"/><g fill="#222" transform="translate(26 27)"><path d="m8.86956522 5.95419847-.93913044-.19847328.73043479.99236641v3.07633588l2.50434783-1.98473282v-3.37404581l-1.1478261.39694657z" fill-rule="nonzero"/><path d="m1.66956522 5.95419847-.93913044-.19847328.73043479.99236641v3.07633588l2.50434782-1.98473282v-3.37404581l-1.14782609.39694657z" fill-rule="nonzero" transform="matrix(-1 0 0 1 4.695652 0)"/><path d="m3.54782609 10.3002838v-.39631352l1.42799216 1.02453572-.00991873-.404696-1.41807343-1.0174193v-.39631355l1.42799216 1.02453565-.00991873-.40469588-1.41807343-1.01741935v-1.76593268l.83478261-1.1908397.52173913.29770992h2.08695652l.52173913-.29770992.83478261 1.1908397v1.74416275l-1.44841626 1.03918928-.00991872.40469588 1.45833498-1.04630559v.39631356l-1.44841626 1.03918923-.00991872.404696 1.45833498-1.04630566v.39631356l-1.44841626 1.0391893-.00991872.4046959 1.45833498-1.0463056v.7361202l-.62608696.8931298-.73043478.6946565h-2.08695652l-.73043479-.6946565-.62608695-.8931298v-.7143503l1.42799216 1.0245357-.00991873-.4046959z"/><path d="m8.66086957 11.7099237 1.35652173-1.2900764v-1.29007631l-1.35652173 1.09160301z" fill-rule="nonzero"/><path d="m1.87826087 11.7099237 1.35652174-1.2900764v-1.29007631l-1.35652174 1.09160301z" fill-rule="nonzero" transform="matrix(-1 0 0 1 5.113044 0)"/><path d="m5.32173913 0h.4173913v5.65648855h-.62608695l-1.35652174-3.77099237.83478261-1.88549618h.31304348v2.28244275l.4173913.19847328zm.83478261 0h.4173913v2.48091603l.41739131-.19847328v-2.28244275h.31304348l.8347826 1.88549618-1.25217391 3.77099237h-.73043478z"/><g fill-rule="nonzero"><path d="m5.11304348 5.65648855-4.48695652-1.58778626-.62608696-2.48091603 3.86086957.29770992 1.35652173 3.77099237z"/><path d="m11.8956522 5.65648855-4.48695655-1.58778626-.62608695-2.48091603 3.9652174.29770992 1.2521739 3.77099237z" transform="matrix(-1 0 0 1 18.782608 0)"/><path d="m8.34782609 1.58778626 2.19130431-.19847328-1.46086953-1.38931298h-1.46086957z"/><path d="m2.08695652 1.58778626 2.19130435-.19847328-1.46086957-1.38931298h-1.46086956z" transform="matrix(-1 0 0 1 5.634782 0)"/></g></g></g></svg>