<svg height="65" viewBox="0 0 65 65" width="65" xmlns="http://www.w3.org/2000/svg"><g fill="none" fill-rule="evenodd" transform=""><path d="m39.8478261 0h-14.6956522c-13.8478261 0-25.1521739 11.3043478-25.1521739 25.1521739v14.6956522c0 13.8478261 11.3043478 25.1521739 25.1521739 25.1521739h14.6956522c13.8478261 0 25.1521739-11.3043478 25.1521739-25.1521739v-14.6956522c0-13.8478261-11.3043478-25.1521739-25.1521739-25.1521739zm23.7391304 39.8478261c0 13.0706522-10.6684782 23.7391304-23.7391304 23.7391304h-14.6956522c-13.0706522 0-23.73913042-10.6684782-23.73913042-23.7391304v-14.6956522c0-13.0706522 10.66847822-23.73913042 23.73913042-23.73913042h14.6956522c13.0706522 0 23.7391304 10.66847822 23.7391304 23.73913042zm-4.2391304-.2826087c0 10.8804348-8.9021739 19.7826087-19.7826087 19.7826087h-14.1304348c-10.8804348 0-19.78260869-8.9021739-19.78260869-19.7826087v-14.1304348c0-10.8804348 8.90217389-19.78260869 19.78260869-19.78260869h14.1304348c10.8804348 0 19.7826087 8.90217389 19.7826087 19.78260869z" fill="#222" fill-rule="nonzero"/><g transform="translate(17.056713 16.682402)"><path d="m14.997375 11.9130163c1.1023189 0 1.9980127-.8753211 1.9980127-1.95682053 0-1.07806318-.8956938-1.95619577-1.9980127-1.95619577-1.1029566 0-1.997375.87813259-1.997375 1.95619577 0 1.08149943.8944184 1.95682053 1.997375 1.95682053z"/><path d="m14.9986505 8c-1.1042321 0-1.9986505.87813259-1.9986505 1.95619577 0 1.08149943.8940995 1.95682053 1.9986505 1.95682053 1.1023188 0 1.9967372-.8753211 1.9967372-1.95682053-.0003188-1.07806318-.8940995-1.95619577-1.9967372-1.95619577z"/><path d="m14.9980127 8c-1.1023188 0-1.9980127.87813259-1.9980127 1.95619577 0 1.08149943.895375 1.95682053 1.9980127 1.95682053 1.1039132 0 1.997375-.8753211 1.997375-1.95682053 0-1.07806318-.8934618-1.95619577-1.997375-1.95619577z"/><path d="m22.4053976 15.9038875c0-2.5841027-1.8640892-4.8195765-4.5642442-5.9035751-.0003189-.0003124-.0003189-.0003124-.0006378-.0003124v.0003124c0 .035925.0066962.0715377.0066962.1074627 0 4.933287-4.2055202 9.0596668-9.8462552 10.1396043h-.0009566c.00031887.0003124.00063773.0003124.0009566.0006248 1.50823495 1.3817077 3.7160613 2.2592155 6.1786615 2.2592155.7547552 0 1.500901-.0834085 2.2215376-.2471017l.2821962-.0281152c.4601232 0 1.4460561.2080527 2.3745931.4307879-.1259519-.273655-.1999288-.5516834-.1782459-.8134675.0274224-.3411316.2031175-.6332177.4907343-.8250261 1.9281812-1.2883027 3.0349642-3.1545297 3.0349642-5.1204096z"/><path d="m28.005978 22.3756682c2.2250451-1.543839 3.4970006-3.7780632 3.4970006-6.1516141 0-3.3760152-2.5490127-6.26032623-6.1314693-7.42398468 0 0-.0003189 0-.0003189.00031239v-.00031239c-.9585104-4.9832697-6.2258536-8.80006942-12.5983854-8.80006942-7.05331021 0-12.772805 4.66869143-12.772805 10.4279417 0 3.2897952 1.88449653 6.201909 4.78394271 8.1337383 1.10518866.7375564-1.57360243 3.2173203-1.57360243 3.2173203s5.35630671-1.4810482 6.15602199-1.3011107c1.08318693.2436654 2.22695833.3754946 3.40644273.3754946.4158009 0 .8252245-.0193682 1.230184-.0512322h.0006377c0 .0003124-.0003188.0003124-.0006377.0006248 1.7435579 2.0511628 4.6187703 3.3985075 7.8718385 3.3985075.8599809 0 1.7145411-.0952794 2.5037338-.275217.5162437 0 2.6430782.5251302 3.9896482.8962513l2.7352303.7553628-2.0627425-1.9158973c-.4594855-.4270392-.9116371-.9946546-1.0347193-1.2861159zm-21.70678529-10.0989934c-1.10263773 0-1.99801273-.8753211-1.99801273-1.9568206 0-1.07806316.89569386-1.95619575 1.99801273-1.95619575 1.10391319 0 1.997375.87813259 1.997375 1.95619575 0 1.0814995-.89346181 1.9568206-1.997375 1.9568206zm12.94531139-3.91301635c1.1023188 0 1.9980127.87813259 1.9980127 1.95619575 0 1.0814995-.8956939 1.9568206-1.9980127 1.9568206-1.1029566 0-1.997375-.8753211-1.997375-1.9568206 0-1.07806316.8944184-1.95619575 1.997375-1.95619575zm-6.4707425 3.91301635c-1.104551 0-1.9986505-.8753211-1.9986505-1.9568206 0-1.07806316.8944184-1.95619575 1.9986505-1.95619575 1.1026377 0 1.9967372.87813259 1.9967372 1.95619575-.0003188 1.0814995-.8944184 1.9568206-1.9967372 1.9568206zm13.8008281 9.892815c-.0216829.2617841.052294.5398125.1782459.8134675-.928537-.2227352-1.9144699-.4307879-2.3745931-.4307879l-.2821962.0281152c-.7206366.1636932-1.4667824.2471017-2.2215376.2471017-2.4626001 0-4.6701077-.8778202-6.1786615-2.2592155-.0003188-.0003124-.0006377-.0003124-.0009566-.0006248h.0009566c5.6404161-1.0799375 9.8462552-5.2063173 9.8462552-10.1396043 0-.035925-.0066962-.0715377-.0066962-.1074627v-.0003124c.0003189 0 .0003189 0 .0006378.0003124 2.7001551 1.0839986 4.5642442 3.3194724 4.5642442 5.9035751 0 1.96588-1.106783 3.832107-3.0349641 5.120722-.2876169.191496-.4633119.4838945-.4907344.8247137z" fill="#fff"/></g></g></svg>