<svg height="65" viewBox="0 0 65 65" width="65" xmlns="http://www.w3.org/2000/svg"><g fill="none" fill-rule="evenodd" transform=""><path d="m39.8478261 0h-14.6956522c-13.8478261 0-25.1521739 11.3043478-25.1521739 25.1521739v14.6956522c0 13.8478261 11.3043478 25.1521739 25.1521739 25.1521739h14.6956522c13.8478261 0 25.1521739-11.3043478 25.1521739-25.1521739v-14.6956522c0-13.8478261-11.3043478-25.1521739-25.1521739-25.1521739zm23.7391304 39.8478261c0 13.0706522-10.6684782 23.7391304-23.7391304 23.7391304h-14.6956522c-13.0706522 0-23.73913042-10.6684782-23.73913042-23.7391304v-14.6956522c0-13.0706522 10.66847822-23.73913042 23.73913042-23.73913042h14.6956522c13.0706522 0 23.7391304 10.66847822 23.7391304 23.73913042zm-4.2391304-.2826087c0 10.8804348-8.9021739 19.7826087-19.7826087 19.7826087h-14.1304348c-10.8804348 0-19.78260869-8.9021739-19.78260869-19.7826087v-14.1304348c0-10.8804348 8.90217389-19.78260869 19.78260869-19.78260869h14.1304348c10.8804348 0 19.7826087 8.90217389 19.7826087 19.78260869z" fill="#222" fill-rule="nonzero"/><path d="m43.2887475 20.0391531c.3208989.0037487.6361349.0506074.940045.1536966.8116854.273655 1.4780225.9034363 1.7932584 1.696286.1264719.3186394.1906517.6541479.2038652.9952794.0811685 6.4027768.241618 12.8093024-.0037753 19.2083305-.0188764.316765-.0830562.6260326-.2000899.9203054-.2963595.745991-.9060674 1.3532801-1.6573483 1.647553-.3208989.1255814-.6587865.1874349-1.0023371.2005553-7.1484944.0899688-14.3026517.268032-21.4454831-.0018743-.3190113-.0206179-.6304719-.0824714-.9287191-.198681-.7512809-.2942729-1.3609888-.901562-1.6573483-1.647553-.126472-.3186393-.1906517-.6541478-.2038652-.9952794-.0811686-6.4027768-.241618-12.8093023.0037753-19.2083304.0188764-.316765.0830561-.6260327.2000899-.9203055.2963595-.745991.9060674-1.3532801 1.6573483-1.6475529.3208988-.1255814.6587865-.1893093 1.002337-.2024297 7.0994158-.0880944 14.1988315 0 21.2982472 0zm2.0613034 5.0270045h-25.3094831c-.0830562 5.6605345-.1849888 11.3229434.0320899 16.9797292.0132134.2136759.0566292.423603.1359101.6241583.2019775.5060743.6172584.9184311 1.1269213 1.1189865.2170787.0843457.4454832.1274557.6795506.1349531 7.123955.0899688 14.253573.268032 21.3737528-.0018743.215191-.0131205.4266067-.0543561.6285843-.1330788.5096629-.2005554.9249438-.6129122 1.1269213-1.1189865.0868315-.2174245.1283596-.4442207.1377978-.67664.0717303-5.6417911.2057528-11.2873308.067955-16.9272475zm-21.4832359 16.8991322c1.9669213-.3130163 4.8097078-.3448802 6.8370337-2.3579312.8381123-.8322111.8381123-2.1836168 0-3.0158279-.8381124-.832211-2.1991012-.832211-3.0372135 0-2.0273259 2.013051-1.6082697 4.1666783-3.7998202 5.3737591zm5.732764-6.9069767c.6550112-1.3457827 1.8404494-2.9558487 3.3920899-4.4965637 3.0542022-3.032697 6.3783371-4.6577577 7.418427-3.6268657 1.0382022 1.0327664-.5983821 4.3334953-3.6525843 7.3661923-1.5459775 1.535092-3.1599101 2.7084346-4.5133483 3.3607081-.0207641-.1461992-.052854-.2923985-.0943821-.434849-.0868314-.2886498-.215191-.5660535-.383191-.8172163-.0868314-.12933-.1849887-.2492884-.2869213-.3673724-.1094832-.1143353-.1094832-.1124609-.2227416-.2211732-.2755955-.2342936-.571955-.4311003-.9098427-.5660534-.2397303-.0974662-.4907865-.1630684-.7475056-.1968067z" fill="#fff"/></g></svg>