<svg height="65" viewBox="0 0 65 65" width="65" xmlns="http://www.w3.org/2000/svg"><g fill="none" fill-rule="evenodd" transform=""><path d="m39.8478261 0h-14.6956522c-13.8478261 0-25.1521739 11.3043478-25.1521739 25.1521739v14.6956522c0 13.8478261 11.3043478 25.1521739 25.1521739 25.1521739h14.6956522c13.8478261 0 25.1521739-11.3043478 25.1521739-25.1521739v-14.6956522c0-13.8478261-11.3043478-25.1521739-25.1521739-25.1521739zm23.7391304 39.8478261c0 13.0706522-10.6684782 23.7391304-23.7391304 23.7391304h-14.6956522c-13.0706522 0-23.73913042-10.6684782-23.73913042-23.7391304v-14.6956522c0-13.0706522 10.66847822-23.73913042 23.73913042-23.73913042h14.6956522c13.0706522 0 23.7391304 10.66847822 23.7391304 23.73913042zm-4.2391304-.2826087c0 10.8804348-8.9021739 19.7826087-19.7826087 19.7826087h-14.1304348c-10.8804348 0-19.78260869-8.9021739-19.78260869-19.7826087v-14.1304348c0-10.8804348 8.90217389-19.78260869 19.78260869-19.78260869h14.1304348c10.8804348 0 19.7826087 8.90217389 19.7826087 19.78260869z" fill="#222" fill-rule="nonzero"/><path d="m47.9338842 31.1687088-.7578209-.1312044c-.1635165-.4579191-.4129937-.8817458-.7355321-1.2495661l.2515456-.7091288c.1343422-.3622283-.0160916-.7667813-.3566216-.959042l-.6718497-.3779938c-.3401959-.1944231-.7737919-.1191199-1.0252872.1780632l-.4935388.5748004c-.4861839-.0887374-.9848803-.0887374-1.4710642 0l-.4935389-.5779243c-.2521952-.2959994-.6848479-.3711389-1.0252871-.1780632l-.6718497.3811177c-.3394772.1931278-.4895892.5968154-.3566216.959042l.2642821.7091288c-.3227854.3676483-.5722908.7915232-.7355321 1.2495661l-.7578209.1312044c-.3864946.0666941-.6684185.3959717-.6686656.7809789v.7591114c.0002471.3850071.282171.7142847.6686656.7809788l.7578209.1312044c.1633791.4579809.4128704.8818317.7355321 1.2495662l-.2515456.7185005c-.1343423.3622282.0160916.7667813.3566216.959042l.6718497.3779937c.3404392.1930757.7730919.1179363 1.0252871-.1780631l.4935389-.5779244c.4862039.0885236.9848602.0885236 1.4710642 0l.4935388.5779244c.2521953.2959994.684848.3711388 1.0252872.1780631l.6718496-.3811176c.3341906-.1959098.4786987-.5976074.3438852-.9559181l-.2642821-.7091288c.3225384-.3678203.5720156-.7916471.7355321-1.2495661l.7578209-.1312045c.3864946-.066694.6684184-.3959716.6686656-.7809788v-.7684831c.0008816-.381084-.2744983-.7089638-.6559291-.7809789zm-4.5119003 2.4991323c-.7478911-.0017305-1.3532416-.597041-1.3532367-1.3307928.0000048-.7337518.605363-1.3290546 1.3532541-1.3307757s1.3560892.590789 1.3596025 1.3245327c-.0008435.3537757-.1448983.6927329-.4004739.9423042-.2555755.2495714-.6017362.3893132-.9623301.3884837zm-.7005068-12.4956613-.3884628-.6497743c-.1959661-.3340912-.608316-.4816806-.9775254-.3498786l-.7132432.259285c-.3746459-.3168037-.8067146-.5616054-1.2736486-.7216244l-.1337332-.7434919c-.0680766-.3899036-.4184794-.6710548-.8215033-.6591461h-.7610051c-.3924273.0002425-.7280509.2768356-.7960304.6560222l-.1337331.7434919c-.4669023.1600869-.8989587.4048816-1.2736487.7216244l-.7227956-.259285c-.3692093-.131802-.7815593.0157874-.9775253.3498785l-.3852787.6591462c-.1967968.334002-.1202092.758474.1814949 1.0059007l.5890625.4842069c-.0907699.4780119-.0907699.9683608 0 1.4463728l-.5890625.4842068c-.2971822.2441775-.3759867.6608891-.1878632.9934051l.3884629.6591461c.195966.3340912.6083159.4816806.9775253.3498785l.7227956-.2592849c.3748217.3165607.8068412.5613345 1.2736487.7216244l.1337331.7434919c.0679794.3791866.4036031.6557797.7960304.6560222h.7641892c.3924273-.0002425.7280509-.2768356.7960304-.6560222l.1592061-.7309962c.4668074-.1602899.8988269-.4050637 1.2736486-.7216245l.7227956.259285c.3692094.1318021.7815593-.0157873.9775253-.3498785l.3789105-.6716418c.1925977-.3282146.1219281-.7442148-.1687584-.9934051l-.6049831-.4842068c.0907699-.478012.0907699-.9683609 0-1.4463728l.6049831-.4842069c.2973932-.250812.3685259-.6748052.1687584-1.0059007zm-4.6838429 3.5518917c-.5494891-.0012892-1.0439005-.3276944-1.2520778-.8266084-.2081773-.4989141-.0889881-1.0717601.3018419-1.4507103.3908301-.3789502.9760797-.4891305 1.482122-.2790274s.8328918.6989769.8277338 1.2380539c-.0087204.7305921-.6148962 1.3183423-1.3596199 1.3182922zm-13.5930152 2.88025.6718497.3779937c.3404392.1930757.7730919.1179363 1.0252871-.1780632l.4903548-.5748004c.4872245.0890536.9870237.0890536 1.4742483 0l.4935388.5779244c.2521953.2959994.684848.3711388 1.0252872.1780631l.6718497-.3811176c.34053-.1922607.4909638-.5968138.3566216-.959042l-.2642821-.7091288c.3227853-.3676484.5722908-.7915232.7355321-1.2495661l.7578209-.1312045c.3864946-.0666941.6684184-.3959716.6686656-.7809788v-.7622353c-.0002472-.3850072-.282171-.7142848-.6686656-.7809789l-.7578209-.1312044c-.1632413-.4580429-.4127468-.8819178-.7355321-1.2495661l.2642821-.7122527c.1343422-.3622283-.0160916-.7667813-.3566216-.959042l-.6718497-.3811177c-.3404392-.1930757-.7730919-.1179362-1.0252872.1780632l-.4935388.5810482c-.4861906-.088666-.9848736-.088666-1.4710642 0l-.496723-.5810482c-.2521952-.2959994-.684848-.3711389-1.0252871-.1780632l-.6686656.3811177c-.3417334.191267-.493598.5960538-.3598057.959042l.2642821.7122527c-.3226617.3677344-.572153.7915852-.7355321 1.2495661l-.757821.1312044c-.3864945.0666941-.6684184.3959717-.6686655.7809789v.7591114c.0002471.3850071.282171.7142847.6686655.7809788l.757821.1312044c.1635164.4579191.4129936.8817459.7355321 1.2495662l-.2642821.7122527c-.1337923.3629881.0180723.7677749.3598057.959042zm2.9262078-5.5449497c.747055.0000505 1.3534437.5927184 1.3563322 1.3256424s-.5988107 1.3301747-1.3458429 1.3358929c-.7470323.0057182-1.3581569-.5822488-1.3669251-1.3151278-.0033945-.3553947.1379135-.6974234.3925711-.9501983.2546577-.252775.6016057-.3953925.9638647-.3962092zm-9.870777 12.4956612.3884628.6591461c.1959661.3340912.608316.4816806.9775253.3498786l.732348-.2874002c.3747779.3166213.8068096.561402 1.2736487.7216244l.1337331.7434918c.0679794.3791866.4036031.6557798.7960304.6560222h.7737415c.3924273-.0002424.728051-.2768356.7960304-.6560222l.1337331-.7434918c.466839-.1602224.8988708-.4050031 1.2736487-.7216244l.7227956.2592849c.3692094.1318021.7815593-.0157873.9775253-.3498785l.3852787-.6591461c.1967968-.3340021.1202093-.7584741-.1814949-1.0059007l-.5890625-.4842069c.0904477-.476991.0904477-.9662579 0-1.4432489l.5890625-.4842069c.3017042-.2474266.3782917-.6718986.1814949-1.0059007l-.3884628-.6591461c-.1959661-.3340912-.608316-.4816806-.9775253-.3498785l-.7227956.2592849c-.37469-.3167428-.8067464-.5615375-1.2736487-.7216244l-.1337331-.7434918c-.0679795-.3791866-.4036031-.6557798-.7960304-.6560223h-.7705574c-.3924273.0002425-.728051.2768357-.7960304.6560223l-.1337331.7434918c-.4669024.1600869-.8989588.4048816-1.2736487.7216244l-.7259797-.2592849c-.3692094-.1318021-.7815593.0157873-.9775254.3498785l-.3884628.6716418c-.1967968.334002-.1202092.758474.1814949 1.0059007l.5890625.4842069c-.0904476.4769909-.0904476.9662579 0 1.4432488l-.5890625.4873308c-.3017041.2474267-.3782917.6718987-.1814949 1.0059008zm4.6742905-3.5550156c.5486271 0 1.0432328.3242361 1.2531833.8215174.2099505.4972814.0938996 1.069677-.2940383 1.4502797-.387938.3806027-.9713652.4944592-1.4782305.2884785-.5068653-.2059806-.8373503-.6912342-.8373503-1.2294877.0017507-.7342612.6080233-1.3290703 1.3564358-1.3307879zm7.2311402 9.3061437v-1.7275252c-.2487705-.4186652-.4221864-.8762383-.5126436-1.3526553-.2738344-.0843457-.5221959-.5216939-.7546368-1.327664-.2133362-.737244-.2133362-1.2152031 0-1.4619924.0847054-.0985964.2064234-.1594312.3375169-.1686914-.0463063-.1455048-.0835235-.2936452-.1114443-.443596-.1399433-.5929895-.1399433-1.2095096 0-1.8024991.1782353-.7044647.5518495-1.3467378 1.0794173-1.8556057.2892162-.3141201.6176482-.5912099.9775253-.8247136.2938767-.2050535.6153608-.3690643.9552365-.4873308.2868265-.0954818.5858359-.1512089.8883699-.1655675.7742483-.0838727 1.5554987.0781828 2.2288851.4623394.4294259.2283807.7922234.5606608 1.0539443.9652899.3214363.0670092.606814.2469974.8023987.5060742.5126435.6247831.6368243 1.7119056.3916469 3.1988893-.0284971.1511447-.0667841.3003538-.1146284.4467199.1322243.0084338.2552427.069344.340701.1686914.206968.2467893.206968.7247484 0 1.4619924-.2324408.8059701-.4808023 1.2495661-.7546368 1.327664-.090901.4703958-.2643581.9217357-.5126436 1.3339118v1.7462687c-.0003546.0278974.0157838.0534741.0413936.0656022 1.9235955.9424968 3.7383553 2.0851241 5.4130068 3.4081916.443636.3577626.6997044.8923361.6973226 1.4557446v1.5619576c0 .5969506-.4932506 1.0808747-1.1017061 1.0808747h-16.3918581c-.6084554 0-1.1017061-.4839241-1.1017061-1.0808747v-1.5619576c-.0033414-.5645007.2528191-1.100414.6973227-1.4588685 1.6747874-1.3219995 3.4895438-2.4635773 5.4130067-3.4050677.0243739-.0130015.0391667-.0383995.0382095-.0656022z" fill="#fff"/></g></svg>