<svg height="65" viewBox="0 0 65 65" width="65" xmlns="http://www.w3.org/2000/svg"><g fill="none" fill-rule="evenodd"><path d="m39.8478261 0h-14.6956522c-13.8478261 0-25.1521739 11.3043478-25.1521739 25.1521739v14.6956522c0 13.8478261 11.3043478 25.1521739 25.1521739 25.1521739h14.6956522c13.8478261 0 25.1521739-11.3043478 25.1521739-25.1521739v-14.6956522c0-13.8478261-11.3043478-25.1521739-25.1521739-25.1521739zm23.7391304 39.8478261c0 13.0706522-10.6684782 23.7391304-23.7391304 23.7391304h-14.6956522c-13.0706522 0-23.73913042-10.6684782-23.73913042-23.7391304v-14.6956522c0-13.0706522 10.66847822-23.73913042 23.73913042-23.73913042h14.6956522c13.0706522 0 23.7391304 10.66847822 23.7391304 23.73913042zm-4.2391304-.2826087c0 10.8804348-8.9021739 19.7826087-19.7826087 19.7826087h-14.1304348c-10.8804348 0-19.78260869-8.9021739-19.78260869-19.7826087v-14.1304348c0-10.8804348 8.90217389-19.78260869 19.78260869-19.78260869h14.1304348c10.8804348 0 19.7826087 8.90217389 19.7826087 19.78260869z" fill="#222" fill-rule="nonzero"/><path d="m45.2972719 23.8853119c-1.143938 0-2.3480652-.0301808-3.6124177-.0905433v.1207244c.5619344.5030206 1.0937573 1.096576 1.5954845 1.7806841.5017272.684108.9432405 1.4386276 1.3245531 2.2635815.3813127.8249538.6823445 1.7203171.9031044 2.6861167.22076.9657995.3311383 1.9919462.3311383 3.0784708 0 1.9919616-.3110662 3.85311-.9332079 5.583501-.6221417 1.7303909-1.5453059 3.2394302-2.7695202 4.527163s-2.7394077 2.3038192-4.5456256 3.0482897-3.903406 1.1167002-6.2916275 1.1167002c-2.2276687 0-4.2245129-.3671995-5.9905926-1.1016097-1.7660797-.7344101-3.2662215-1.7605567-4.5004704-3.0784708-1.2342489-1.317914-2.1774818-2.8973751-2.8297272-4.7384306-.6522453-1.8410554-.9783631-3.8681982-.9783631-6.0814889 0-3.1187279.6773215-5.8349985 2.0319849-8.1488934 1.3546635-2.3138948 3.3163873-4.0643803 5.8852305-5.251509.5619345-.2615707 1.1539637-.4929568 1.7761054-.694165.6221417-.2012083 1.3094976-.3672026 2.0620884-.4979879.7525908-.1307854 1.5854454-.231388 2.4985889-.3018109s1.9316344-.1056338 3.0555033-.1056338h14.6904986v5.8853119zm-12.4026341 0c-1.6858033 0-3.0605152.2615668-4.1241768.7847082-1.0636617.5231415-1.9216023 1.2172995-2.5738476 2.082495-.6522454.8651955-1.1188447 1.8611614-1.3998119 2.9879276s-.4214487 2.2937565-.4214487 3.501006c0 1.4285786.1856362 2.6961715.5569144 3.8028169.3712781 1.1066454.8729977 2.0372196 1.505174 2.7917505s1.3847558 1.3279658 2.2577611 1.7203219 1.8011866.5885312 2.7845719.5885312c2.1674615 0 3.8733083-.7645799 5.1175917-2.2937626 1.2442835-1.5291827 1.8664158-3.6921389 1.8664158-6.4889336 0-1.1267662-.1254299-2.1629731-.3762935-3.1086519-.2508636-.9456787-.5819985-1.8108612-.9934148-2.5955734s-.8780156-1.4889305-1.3998119-2.1126761c-.5217963-.6237455-1.0435847-1.1770599-1.565381-1.6599597z" fill="#fff"/></g></svg>