<svg height="66" viewBox="0 0 66 66" width="66" xmlns="http://www.w3.org/2000/svg"><g fill="none" fill-rule="evenodd" transform="translate(.282053 .883341)"><path d="m39.8478261 0h-14.6956522c-13.8478261 0-25.1521739 11.3043478-25.1521739 25.1521739v14.6956522c0 13.8478261 11.3043478 25.1521739 25.1521739 25.1521739h14.6956522c13.8478261 0 25.1521739-11.3043478 25.1521739-25.1521739v-14.6956522c0-13.8478261-11.3043478-25.1521739-25.1521739-25.1521739zm23.7391304 39.8478261c0 13.0706522-10.6684782 23.7391304-23.7391304 23.7391304h-14.6956522c-13.0706522 0-23.73913042-10.6684782-23.73913042-23.7391304v-14.6956522c0-13.0706522 10.66847822-23.73913042 23.73913042-23.73913042h14.6956522c13.0706522 0 23.7391304 10.66847822 23.7391304 23.73913042zm-4.2391304-.2826087c0 10.8804348-8.9021739 19.7826087-19.7826087 19.7826087h-14.1304348c-10.8804348 0-19.78260869-8.9021739-19.78260869-19.7826087v-14.1304348c0-10.8804348 8.90217389-19.78260869 19.78260869-19.78260869h14.1304348c10.8804348 0 19.7826087 8.90217389 19.7826087 19.78260869z" fill="#222" fill-rule="nonzero"/><g fill="#fff"><path d="m40.7192497 24.0280492v1.7398799h5.404801v17.2759971h-26.1918325v-17.2759971h3.1134149v-1.7398799h-5.0456331v20.7576346h30.0558933v-20.7576346z"/><path d="m32.733399 23.005076h5.956327v5.819003h-5.956327z"/><path d="m34.267377 29.541737h9.739988v9.513947h-9.739988z"/><path d="m26.330742 20.076986h5.000174v5.173073h-5.000174z"/><path d="m28.218252 31.315791h3.33132v3.254435h-3.33132z"/><path d="m24.885429 27.354964h2.610354v2.550672h-2.610354z"/><path d="m24.875661 35.929308h2.315807v2.263384h-2.315807z"/></g></g></svg>