<svg height="66" viewBox="0 0 66 66" width="66" xmlns="http://www.w3.org/2000/svg"><g fill="none" fill-rule="evenodd" transform="translate(.253444 .994793)"><path d="m39.8478261 0h-14.6956522c-13.8478261 0-25.1521739 11.3043478-25.1521739 25.1521739v14.6956522c0 13.8478261 11.3043478 25.1521739 25.1521739 25.1521739h14.6956522c13.8478261 0 25.1521739-11.3043478 25.1521739-25.1521739v-14.6956522c0-13.8478261-11.3043478-25.1521739-25.1521739-25.1521739zm23.7391304 39.8478261c0 13.0706522-10.6684782 23.7391304-23.7391304 23.7391304h-14.6956522c-13.0706522 0-23.73913042-10.6684782-23.73913042-23.7391304v-14.6956522c0-13.0706522 10.66847822-23.73913042 23.73913042-23.73913042h14.6956522c13.0706522 0 23.7391304 10.66847822 23.7391304 23.73913042zm-4.2391304-.2826087c0 10.8804348-8.9021739 19.7826087-19.7826087 19.7826087h-14.1304348c-10.8804348 0-19.78260869-8.9021739-19.78260869-19.7826087v-14.1304348c0-10.8804348 8.90217389-19.78260869 19.78260869-19.78260869h14.1304348c10.8804348 0 19.7826087 8.90217389 19.7826087 19.78260869z" fill="#222" fill-rule="nonzero"/><path d="m32.5442367 17c-8.5842589 0-15.5442367 6.8348143-15.5442367 15.2665741 0 6.7448455 4.4538895 12.4662964 10.6313112 14.4859077.7777845.139639 1.0612225-.3317598 1.0612225-.7366193 0-.3617493-.0133607-1.3223533-.0209954-2.5959736-4.3240998.9221798-5.2364457-2.0467893-5.2364457-2.0467893-.7071635-1.7628254-1.7263952-2.233287-1.7263952-2.233287-1.411464-.9465464.1068858-.9278029.1068858-.9278029 1.5603405.1077751 2.3810701 1.5735162 2.3810701 1.5735162 1.3866513 2.3326275 3.638886 1.658799 4.5245105 1.2689344.1412418-.9868449.5420632-1.6597362.9867842-2.0411663-3.451836-.3851788-7.0811786-1.6953488-7.0811786-7.5451926 0-1.6662965.6060038-3.0289483 1.6004227-4.0963902-.1603286-.3861159-.6938028-1.938077.1517395-4.0401597 0 0 1.3055327-.4104824 4.2754286 1.5650816 1.2396834-.3392572 2.5700288-.5079486 3.8917852-.5135717 1.3198477.0056231 2.6501931.1743145 3.8917852.5135717 2.9679873-1.975564 4.2706569-1.5650816 4.2706569-1.5650816.8484054 2.1020827.3149311 3.6540438.1546026 4.0401597.9963275 1.0674419 1.598514 2.4300937 1.598514 4.0963902 0 5.8648386-3.6350686 7.155328-7.0983567 7.5330093.558287.4713988 1.0554965 1.4029504 1.0554965 2.8274558 0 2.0402291-.0190868 3.6868448-.0190868 4.187296 0 .4086082.2796207.8837557 1.0688572.7347449 6.17265-2.0233599 10.6227222-7.7410621 10.6227222-14.4840333 0-8.4317598-6.9609322-15.2665741-15.5470998-15.2665741" fill="#fff"/></g></svg>