<svg height="45" viewBox="0 0 90 45" width="90" xmlns="http://www.w3.org/2000/svg"><g fill="none" fill-rule="evenodd" transform=""><path d="m0 0v44.415h45.371l44.41-44.41h-89.781z" fill="#fff" fill-rule="nonzero"/><path d="m57.4688 39.875v3.3125h.5v-1.4375h.5624l.9063 1.4375h.5625l-.9688-1.4375c.4841-.06.875-.3415.875-.9375 0-.653-.3996-.9375-1.1874-.9375zm.5.4375h.6874c.3381 0 .7188.055.7188.4687 0 .5171-.3855.5626-.8125.5626h-.5937zm.625-1.6563c-1.586 0-2.9376 1.2221-2.9376 2.875 0 1.665 1.3515 2.9063 2.9376 2.9063 1.564 0 2.875-1.2411 2.875-2.9063 0-1.6529-1.311-2.875-2.875-2.875zm0 .4688c1.2939 0 2.3124 1.0453 2.3124 2.4062 0 1.3842-1.0185 2.4063-2.3124 2.4063-1.3161 0-2.375-1.0221-2.375-2.4063 0-1.3609 1.0589-2.4062 2.375-2.4062z" fill="#fff" fill-rule="nonzero"/><path d="m53.797 21.252h-1.946v-7.117h1.946c2.598 0 4.666.856 4.666 3.513 0 2.744-2.068 3.604-4.666 3.604m-20.945 5.088c-1.03 0-1.996-.188-2.831-.502l2.803-8.84h.06l2.745 8.864c-.827.296-1.768.478-2.774.478m20.426-17.987h-8.837v21.013l-7.72-21.013h-7.652l-6.596 17.568c-.697-4.428-5.284-5.961-8.89-7.104-2.377-.765-4.907-1.889-4.884-3.134.02-1.018 1.359-1.962 4-1.821 1.78.09 3.35.234 6.467 1.741l3.07-5.348c-2.844-1.453-6.785-2.365-10.009-2.372h-.02c-3.761 0-6.895 1.226-8.839 3.233-1.351 1.404-2.082 3.18-2.115 5.157-.05 2.708.947 4.63 3.034 6.167 1.766 1.294 4.019 2.127 6.009 2.751 2.455.757 4.459 1.418 4.436 2.827-.02.513-.211.994-.582 1.374-.611.635-1.55.87-2.849.899-2.504.05-4.361-.34-7.319-2.088l-2.729 5.423c2.949 1.679 6.44 2.661 10.003 2.661h.461c3.1-.06 5.604-.945 7.605-2.553l.324-.283-.884 2.376h8.025l1.348-4.099c1.41.477 3.016.745 4.716.745 1.659 0 3.224-.25 4.609-.706l1.296 4.06h13.094v-8.49h2.857c6.9 0 10.986-3.512 10.986-9.406 0-6.56-3.968-9.569-12.416-9.569" fill="#222"/></g></svg>