<svg height="40" viewBox="0 0 39 40" width="39" xmlns="http://www.w3.org/2000/svg"><g fill="#fff" fill-rule="evenodd" transform=""><path d="m23.073375 5.82452069c-1.1881071-.31810345-2.4430714-.48634483-3.7091786-.48634483-1.2549643 0-2.4709285.16824138-3.6283928.46937931l3.6771428 10.29948273z"/><path d="m33.8571536 20.0694759c0-1.8365173-.3106072-3.5910345-.9151072-5.2154828l-6.8974285 18.2676207c4.6256785-2.46 7.8125357-7.3842414 7.8125357-13.0521379"/><path d="m26.6595643 7.33784483-4.2523929 11.87586207h-1.8775714-2.2271786-1.88175l-4.2677143-11.92675862c-1.5781071.91755172-2.95564281 2.12775862-4.09778567 3.55710342l6.06171427 15.9532414 2.2202143-5.8276552h1.7090357 2.4026786 1.7104286l2.2188214 5.8276552 6.1202143-16.1426897c-1.0794643-1.32472409-2.3831786-2.4501034-3.8387143-3.31675857"/><path d="m19.3647536 37.073331c-9.2945357 0-16.8911786-7.693862-16.8911786-17.1252758 0-9.4512069 7.5966429-17.15779313 16.8911786-17.15779313s16.8911785 7.70658623 16.8911785 17.15779313c0 9.4314138-7.5966428 17.1252758-16.8911785 17.1252758m0-36.78124134c-10.65396431 0-19.36489289 8.82206896-19.36489289 19.65737934 0 10.8013793 8.71092858 19.6361724 19.36489289 19.6361724 10.6651071 0 19.3467857-8.8347931 19.3467857-19.6361724 0-10.83531038-8.6816786-19.65737934-19.3467857-19.65737934" transform="translate(0 .121138)"/><path d="m19.2381429 24.0941207-3.7412143 9.8513103-.0167143.3053793c1.23825.3534483 2.5377857.5301725 3.8846786.5301725 1.2647142 0 2.4918214-.1611725 3.6590357-.4665518l-.0417857-.369z"/><path d="m4.85800714 20.0694759c0 5.5378275 3.04339286 10.3984482 7.54510716 12.8923793l-6.72192859-17.7841035c-.53903571 1.5297242-.82317857 3.1683104-.82317857 4.8917242"/></g></svg>